ISO-10303-21;
HEADER;
/* Generated by software containing ST-Developer
 * from STEP Tools, Inc. (www.steptools.com) 
 */

FILE_DESCRIPTION(
/* description */ ('Alibre Inc.'),
/* implementation_level */ '2;1');

FILE_NAME(
/* name */ 'export-BEC6E473-344E-4C94-9FB1-2C7C680D176C',
/* time_stamp */ '2026-04-25T17:12:06-05:00',
/* author */ (''),
/* organization */ (''),
/* preprocessor_version */ 'ST-DEVELOPER v17',
/* originating_system */ 'Alibre',
/* authorisation */ '');

FILE_SCHEMA (('AUTOMOTIVE_DESIGN'));
ENDSEC;

DATA;
#10=STYLED_ITEM('NAME_0',(#18),#329);
#11=MECHANICAL_DESIGN_GEOMETRIC_PRESENTATION_REPRESENTATION('NAME_0',(#10),
#48);
#12=COLOUR_RGB('',0.882352941176471,0.882352941176471,0.882352941176471);
#13=FILL_AREA_STYLE_COLOUR('NAME_0',#12);
#14=FILL_AREA_STYLE('NAME_0',(#13));
#15=SURFACE_STYLE_FILL_AREA(#14);
#16=SURFACE_SIDE_STYLE('NAME_0',(#15));
#17=SURFACE_STYLE_USAGE(.POSITIVE.,#16);
#18=PRESENTATION_STYLE_ASSIGNMENT((#17));
#19=DERIVED_UNIT_ELEMENT(#44,3.);
#20=DERIVED_UNIT_ELEMENT(#44,2.);
#21=DERIVED_UNIT((#19));
#22=DERIVED_UNIT((#20));
#23=REPRESENTATION('volume',(#26),#48);
#24=REPRESENTATION('centroid',(#321),#48);
#25=REPRESENTATION('surface area',(#27),#48);
#26=MEASURE_REPRESENTATION_ITEM('volume measure',VOLUME_MEASURE(12.8532080873753),
#21);
#27=MEASURE_REPRESENTATION_ITEM('surface area measure',AREA_MEASURE(110.423641063431),
#22);
#28=PROPERTY_DEFINITION_REPRESENTATION(#31,#23);
#29=PROPERTY_DEFINITION_REPRESENTATION(#32,#24);
#30=PROPERTY_DEFINITION_REPRESENTATION(#33,#25);
#31=PROPERTY_DEFINITION('geometric_validation_property',
'Volume of an assembly or component part',#36);
#32=PROPERTY_DEFINITION('geometric_validation_property',
'Centroid of an assembly or component part',#36);
#33=PROPERTY_DEFINITION('geometric_validation_property',
'Surface area of an assembly or component part',#36);
#34=PRODUCT_DEFINITION_CONTEXT('part definition',#41,'design');
#35=SHAPE_DEFINITION_REPRESENTATION(#36,#330);
#36=PRODUCT_DEFINITION_SHAPE('PRODUCT_VERSION_ID',
'PRODUCT_VERSION_DESCR',#37);
#37=PRODUCT_DEFINITION('PRODUCT_VERSION_ID','PRODUCT_VERSION_DESCR',#38,
#34);
#38=PRODUCT_DEFINITION_FORMATION_WITH_SPECIFIED_SOURCE(
'PRODUCT_VERSION_ID','PRODUCT_VERSION_DESCR',#43,.MADE.);
#39=PRODUCT_RELATED_PRODUCT_CATEGORY('part','part',(#43));
#40=APPLICATION_PROTOCOL_DEFINITION('Draft International Standard',
'automotive_design',1994,#41);
#41=APPLICATION_CONTEXT('automotive_Design');
#42=PRODUCT_CONTEXT('3D Mechanical Parts',#41,'mechanical');
#43=PRODUCT('5555555','p1','55222222222',(#42));
#44=(
LENGTH_UNIT()
NAMED_UNIT(*)
SI_UNIT(.CENTI.,.METRE.)
);
#45=(
NAMED_UNIT(*)
PLANE_ANGLE_UNIT()
SI_UNIT($,.RADIAN.)
);
#46=(
NAMED_UNIT(*)
SI_UNIT($,.STERADIAN.)
SOLID_ANGLE_UNIT()
);
#47=UNCERTAINTY_MEASURE_WITH_UNIT(LENGTH_MEASURE(1.E-6),#44,
'DISTANCE_ACCURACY_VALUE',
'Maximum model space distance between geometric entities at asserted c
onnectivities');
#48=(
GEOMETRIC_REPRESENTATION_CONTEXT(3)
GLOBAL_UNCERTAINTY_ASSIGNED_CONTEXT((#47))
GLOBAL_UNIT_ASSIGNED_CONTEXT((#46,#45,#44))
REPRESENTATION_CONTEXT('ID1','3D')
);
#49=CIRCLE('',#220,0.320365313544433);
#50=CIRCLE('',#221,0.320365313544433);
#51=CIRCLE('',#223,0.210142343625753);
#52=CIRCLE('',#224,0.210142343625753);
#53=CIRCLE('',#226,0.210142343625753);
#54=CIRCLE('',#227,0.210142343625753);
#55=CIRCLE('',#229,0.394880294799805);
#56=CIRCLE('',#230,0.394880294799805);
#57=CYLINDRICAL_SURFACE('',#219,0.320365313544433);
#58=CYLINDRICAL_SURFACE('',#222,0.210142343625753);
#59=CYLINDRICAL_SURFACE('',#225,0.210142343625753);
#60=CYLINDRICAL_SURFACE('',#228,0.394880294799805);
#61=VERTEX_POINT('',#277);
#62=VERTEX_POINT('',#278);
#63=VERTEX_POINT('',#280);
#64=VERTEX_POINT('',#282);
#65=VERTEX_POINT('',#286);
#66=VERTEX_POINT('',#288);
#67=VERTEX_POINT('',#292);
#68=VERTEX_POINT('',#294);
#69=VERTEX_POINT('',#301);
#70=VERTEX_POINT('',#303);
#71=VERTEX_POINT('',#306);
#72=VERTEX_POINT('',#308);
#73=VERTEX_POINT('',#311);
#74=VERTEX_POINT('',#313);
#75=VERTEX_POINT('',#316);
#76=VERTEX_POINT('',#318);
#77=VECTOR('',#234,1.);
#78=VECTOR('',#235,1.);
#79=VECTOR('',#236,1.);
#80=VECTOR('',#237,1.);
#81=VECTOR('',#239,1.);
#82=VECTOR('',#240,1.);
#83=VECTOR('',#241,1.);
#84=VECTOR('',#243,1.);
#85=VECTOR('',#244,1.);
#86=VECTOR('',#245,1.);
#87=VECTOR('',#247,1.);
#88=VECTOR('',#248,1.);
#89=LINE('',#276,#77);
#90=LINE('',#279,#78);
#91=LINE('',#281,#79);
#92=LINE('',#283,#80);
#93=LINE('',#285,#81);
#94=LINE('',#287,#82);
#95=LINE('',#289,#83);
#96=LINE('',#291,#84);
#97=LINE('',#293,#85);
#98=LINE('',#295,#86);
#99=LINE('',#297,#87);
#100=LINE('',#298,#88);
#101=EDGE_CURVE('',#61,#62,#89,.T.);
#102=EDGE_CURVE('',#63,#62,#90,.T.);
#103=EDGE_CURVE('',#63,#64,#91,.T.);
#104=EDGE_CURVE('',#64,#61,#92,.T.);
#105=EDGE_CURVE('',#62,#65,#93,.T.);
#106=EDGE_CURVE('',#66,#65,#94,.T.);
#107=EDGE_CURVE('',#66,#63,#95,.T.);
#108=EDGE_CURVE('',#65,#67,#96,.T.);
#109=EDGE_CURVE('',#68,#67,#97,.T.);
#110=EDGE_CURVE('',#68,#66,#98,.T.);
#111=EDGE_CURVE('',#67,#61,#99,.T.);
#112=EDGE_CURVE('',#64,#68,#100,.T.);
#113=EDGE_CURVE('',#69,#69,#49,.T.);
#114=EDGE_CURVE('',#70,#70,#50,.T.);
#115=EDGE_CURVE('',#71,#71,#51,.T.);
#116=EDGE_CURVE('',#72,#72,#52,.T.);
#117=EDGE_CURVE('',#73,#73,#53,.T.);
#118=EDGE_CURVE('',#74,#74,#54,.T.);
#119=EDGE_CURVE('',#75,#75,#55,.T.);
#120=EDGE_CURVE('',#76,#76,#56,.T.);
#121=ORIENTED_EDGE('',*,*,#101,.T.);
#122=ORIENTED_EDGE('',*,*,#102,.F.);
#123=ORIENTED_EDGE('',*,*,#103,.T.);
#124=ORIENTED_EDGE('',*,*,#104,.T.);
#125=ORIENTED_EDGE('',*,*,#105,.T.);
#126=ORIENTED_EDGE('',*,*,#106,.F.);
#127=ORIENTED_EDGE('',*,*,#107,.T.);
#128=ORIENTED_EDGE('',*,*,#102,.T.);
#129=ORIENTED_EDGE('',*,*,#108,.T.);
#130=ORIENTED_EDGE('',*,*,#109,.F.);
#131=ORIENTED_EDGE('',*,*,#110,.T.);
#132=ORIENTED_EDGE('',*,*,#106,.T.);
#133=ORIENTED_EDGE('',*,*,#111,.T.);
#134=ORIENTED_EDGE('',*,*,#104,.F.);
#135=ORIENTED_EDGE('',*,*,#112,.T.);
#136=ORIENTED_EDGE('',*,*,#109,.T.);
#137=ORIENTED_EDGE('',*,*,#113,.T.);
#138=ORIENTED_EDGE('',*,*,#114,.F.);
#139=ORIENTED_EDGE('',*,*,#115,.T.);
#140=ORIENTED_EDGE('',*,*,#116,.F.);
#141=ORIENTED_EDGE('',*,*,#117,.T.);
#142=ORIENTED_EDGE('',*,*,#118,.F.);
#143=ORIENTED_EDGE('',*,*,#119,.T.);
#144=ORIENTED_EDGE('',*,*,#120,.F.);
#145=ORIENTED_EDGE('',*,*,#119,.F.);
#146=ORIENTED_EDGE('',*,*,#117,.F.);
#147=ORIENTED_EDGE('',*,*,#115,.F.);
#148=ORIENTED_EDGE('',*,*,#113,.F.);
#149=ORIENTED_EDGE('',*,*,#101,.F.);
#150=ORIENTED_EDGE('',*,*,#111,.F.);
#151=ORIENTED_EDGE('',*,*,#108,.F.);
#152=ORIENTED_EDGE('',*,*,#105,.F.);
#153=ORIENTED_EDGE('',*,*,#120,.T.);
#154=ORIENTED_EDGE('',*,*,#118,.T.);
#155=ORIENTED_EDGE('',*,*,#116,.T.);
#156=ORIENTED_EDGE('',*,*,#114,.T.);
#157=ORIENTED_EDGE('',*,*,#112,.F.);
#158=ORIENTED_EDGE('',*,*,#103,.F.);
#159=ORIENTED_EDGE('',*,*,#107,.F.);
#160=ORIENTED_EDGE('',*,*,#110,.F.);
#161=EDGE_LOOP('',(#121,#122,#123,#124));
#162=EDGE_LOOP('',(#125,#126,#127,#128));
#163=EDGE_LOOP('',(#129,#130,#131,#132));
#164=EDGE_LOOP('',(#133,#134,#135,#136));
#165=EDGE_LOOP('',(#137));
#166=EDGE_LOOP('',(#138));
#167=EDGE_LOOP('',(#139));
#168=EDGE_LOOP('',(#140));
#169=EDGE_LOOP('',(#141));
#170=EDGE_LOOP('',(#142));
#171=EDGE_LOOP('',(#143));
#172=EDGE_LOOP('',(#144));
#173=EDGE_LOOP('',(#145));
#174=EDGE_LOOP('',(#146));
#175=EDGE_LOOP('',(#147));
#176=EDGE_LOOP('',(#148));
#177=EDGE_LOOP('',(#149,#150,#151,#152));
#178=EDGE_LOOP('',(#153));
#179=EDGE_LOOP('',(#154));
#180=EDGE_LOOP('',(#155));
#181=EDGE_LOOP('',(#156));
#182=EDGE_LOOP('',(#157,#158,#159,#160));
#183=FACE_BOUND('',#161,.T.);
#184=FACE_BOUND('',#162,.T.);
#185=FACE_BOUND('',#163,.T.);
#186=FACE_BOUND('',#164,.T.);
#187=FACE_BOUND('',#165,.T.);
#188=FACE_BOUND('',#166,.T.);
#189=FACE_BOUND('',#167,.T.);
#190=FACE_BOUND('',#168,.T.);
#191=FACE_BOUND('',#169,.T.);
#192=FACE_BOUND('',#170,.T.);
#193=FACE_BOUND('',#171,.T.);
#194=FACE_BOUND('',#172,.T.);
#195=FACE_BOUND('',#173,.T.);
#196=FACE_BOUND('',#174,.T.);
#197=FACE_BOUND('',#175,.T.);
#198=FACE_BOUND('',#176,.T.);
#199=FACE_BOUND('',#177,.T.);
#200=FACE_BOUND('',#178,.T.);
#201=FACE_BOUND('',#179,.T.);
#202=FACE_BOUND('',#180,.T.);
#203=FACE_BOUND('',#181,.T.);
#204=FACE_BOUND('',#182,.T.);
#205=ADVANCED_FACE('',(#183),#322,.T.);
#206=ADVANCED_FACE('',(#184),#323,.T.);
#207=ADVANCED_FACE('',(#185),#324,.T.);
#208=ADVANCED_FACE('',(#186),#325,.T.);
#209=ADVANCED_FACE('',(#187,#188),#57,.F.);
#210=ADVANCED_FACE('',(#189,#190),#58,.F.);
#211=ADVANCED_FACE('',(#191,#192),#59,.F.);
#212=ADVANCED_FACE('',(#193,#194),#60,.F.);
#213=ADVANCED_FACE('',(#195,#196,#197,#198,#199),#326,.T.);
#214=ADVANCED_FACE('',(#200,#201,#202,#203,#204),#327,.F.);
#215=AXIS2_PLACEMENT_3D('',#275,#233,$);
#216=AXIS2_PLACEMENT_3D('',#284,#238,$);
#217=AXIS2_PLACEMENT_3D('',#290,#242,$);
#218=AXIS2_PLACEMENT_3D('',#296,#246,$);
#219=AXIS2_PLACEMENT_3D('',#299,#249,#250);
#220=AXIS2_PLACEMENT_3D('',#300,#251,#252);
#221=AXIS2_PLACEMENT_3D('',#302,#253,#254);
#222=AXIS2_PLACEMENT_3D('',#304,#255,#256);
#223=AXIS2_PLACEMENT_3D('',#305,#257,#258);
#224=AXIS2_PLACEMENT_3D('',#307,#259,#260);
#225=AXIS2_PLACEMENT_3D('',#309,#261,#262);
#226=AXIS2_PLACEMENT_3D('',#310,#263,#264);
#227=AXIS2_PLACEMENT_3D('',#312,#265,#266);
#228=AXIS2_PLACEMENT_3D('',#314,#267,#268);
#229=AXIS2_PLACEMENT_3D('',#315,#269,#270);
#230=AXIS2_PLACEMENT_3D('',#317,#271,#272);
#231=AXIS2_PLACEMENT_3D('',#319,#273,$);
#232=AXIS2_PLACEMENT_3D('',#320,#274,$);
#233=DIRECTION('',(0.,0.,-1.));
#234=DIRECTION('',(1.,0.,0.));
#235=DIRECTION('',(0.,1.,0.));
#236=DIRECTION('',(-1.,0.,0.));
#237=DIRECTION('',(0.,1.,0.));
#238=DIRECTION('',(1.,0.,-1.45763283007193E-16));
#239=DIRECTION('',(1.45763283007193E-16,0.,1.));
#240=DIRECTION('',(0.,1.,0.));
#241=DIRECTION('',(-1.45763283007193E-16,0.,-1.));
#242=DIRECTION('',(2.09387607156615E-16,0.,1.));
#243=DIRECTION('',(-1.,0.,2.09387607156615E-16));
#244=DIRECTION('',(0.,1.,0.));
#245=DIRECTION('',(1.,0.,-2.09387607156615E-16));
#246=DIRECTION('',(-1.,0.,2.91526566014385E-16));
#247=DIRECTION('',(-2.91526566014385E-16,0.,-1.));
#248=DIRECTION('',(2.91526566014385E-16,0.,1.));
#249=DIRECTION('',(0.,1.,0.));
#250=DIRECTION('',(0.320365313544433,0.,0.));
#251=DIRECTION('',(0.,1.,0.));
#252=DIRECTION('',(0.320365313544433,0.,0.));
#253=DIRECTION('',(0.,1.,0.));
#254=DIRECTION('',(0.320365313544433,0.,0.));
#255=DIRECTION('',(0.,1.,0.));
#256=DIRECTION('',(0.210142343625753,0.,0.));
#257=DIRECTION('',(0.,1.,0.));
#258=DIRECTION('',(0.210142343625753,0.,0.));
#259=DIRECTION('',(0.,1.,0.));
#260=DIRECTION('',(0.210142343625753,0.,0.));
#261=DIRECTION('',(0.,1.,0.));
#262=DIRECTION('',(0.210142343625753,0.,0.));
#263=DIRECTION('',(0.,1.,0.));
#264=DIRECTION('',(0.210142343625753,0.,0.));
#265=DIRECTION('',(0.,1.,0.));
#266=DIRECTION('',(0.210142343625753,0.,0.));
#267=DIRECTION('',(0.,1.,0.));
#268=DIRECTION('',(0.394880294799805,0.,0.));
#269=DIRECTION('',(0.,1.,0.));
#270=DIRECTION('',(0.394880294799805,0.,0.));
#271=DIRECTION('',(0.,1.,0.));
#272=DIRECTION('',(0.394880294799805,0.,0.));
#273=DIRECTION('',(0.,1.,0.));
#274=DIRECTION('',(0.,1.,0.));
#275=CARTESIAN_POINT('',(0.,0.,-3.04664659500122));
#276=CARTESIAN_POINT('',(4.24179077148438,0.254,-3.04664659500122));
#277=CARTESIAN_POINT('',(-4.24179077148438,0.254,-3.04664659500122));
#278=CARTESIAN_POINT('',(4.24179077148438,0.254,-3.04664659500122));
#279=CARTESIAN_POINT('',(4.24179077148438,0.,-3.04664659500122));
#280=CARTESIAN_POINT('',(4.24179077148438,0.,-3.04664659500122));
#281=CARTESIAN_POINT('',(4.24179077148438,0.,-3.04664659500122));
#282=CARTESIAN_POINT('',(-4.24179077148438,0.,-3.04664659500122));
#283=CARTESIAN_POINT('',(-4.24179077148438,0.,-3.04664659500122));
#284=CARTESIAN_POINT('',(4.24179077148438,0.,-4.44089209850063E-16));
#285=CARTESIAN_POINT('',(4.24179077148438,0.254,3.04664659500122));
#286=CARTESIAN_POINT('',(4.24179077148438,0.254,3.04664659500122));
#287=CARTESIAN_POINT('',(4.24179077148438,0.,3.04664659500122));
#288=CARTESIAN_POINT('',(4.24179077148438,0.,3.04664659500122));
#289=CARTESIAN_POINT('',(4.24179077148438,0.,3.04664659500122));
#290=CARTESIAN_POINT('',(1.77635683940025E-15,0.,3.04664659500122));
#291=CARTESIAN_POINT('',(-4.24179077148437,0.254,3.04664659500122));
#292=CARTESIAN_POINT('',(-4.24179077148437,0.254,3.04664659500122));
#293=CARTESIAN_POINT('',(-4.24179077148437,0.,3.04664659500122));
#294=CARTESIAN_POINT('',(-4.24179077148437,0.,3.04664659500122));
#295=CARTESIAN_POINT('',(-4.24179077148437,0.,3.04664659500122));
#296=CARTESIAN_POINT('',(-4.24179077148437,0.,4.44089209850063E-16));
#297=CARTESIAN_POINT('',(-4.24179077148438,0.254,-3.04664659500122));
#298=CARTESIAN_POINT('',(-4.24179077148438,0.,-3.04664659500122));
#299=CARTESIAN_POINT('',(1.35423469543457,0.,1.70158958435059));
#300=CARTESIAN_POINT('',(1.35423469543457,0.254,1.70158958435059));
#301=CARTESIAN_POINT('',(1.674600008979,0.254,1.70158958435059));
#302=CARTESIAN_POINT('',(1.35423469543457,0.,1.70158958435059));
#303=CARTESIAN_POINT('',(1.674600008979,0.,1.70158958435059));
#304=CARTESIAN_POINT('',(1.88485431671143,0.,-1.54382705688477));
#305=CARTESIAN_POINT('',(1.88485431671143,0.254,-1.54382705688477));
#306=CARTESIAN_POINT('',(2.09499666033718,0.254,-1.54382705688477));
#307=CARTESIAN_POINT('',(1.88485431671143,0.,-1.54382705688477));
#308=CARTESIAN_POINT('',(2.09499666033718,0.,-1.54382705688477));
#309=CARTESIAN_POINT('',(-3.03880023956299,0.,-1.96338653564453));
#310=CARTESIAN_POINT('',(-3.03880023956299,0.254,-1.96338653564453));
#311=CARTESIAN_POINT('',(-2.82865789593724,0.254,-1.96338653564453));
#312=CARTESIAN_POINT('',(-3.03880023956299,0.,-1.96338653564453));
#313=CARTESIAN_POINT('',(-2.82865789593724,0.,-1.96338653564453));
#314=CARTESIAN_POINT('',(-1.76778221130371,0.,1.63988971710205));
#315=CARTESIAN_POINT('',(-1.76778221130371,0.254,1.63988971710205));
#316=CARTESIAN_POINT('',(-1.37290191650391,0.254,1.63988971710205));
#317=CARTESIAN_POINT('',(-1.76778221130371,0.,1.63988971710205));
#318=CARTESIAN_POINT('',(-1.37290191650391,0.,1.63988971710205));
#319=CARTESIAN_POINT('',(3.33066907387547E-16,0.254,0.));
#320=CARTESIAN_POINT('',(3.33066907387547E-16,0.,0.));
#321=CARTESIAN_POINT('centre point',(0.0116479121604094,0.127,-0.0171020843936169));
#322=PLANE('',#215);
#323=PLANE('',#216);
#324=PLANE('',#217);
#325=PLANE('',#218);
#326=PLANE('',#231);
#327=PLANE('',#232);
#328=CLOSED_SHELL('',(#205,#206,#207,#208,#209,#210,#211,#212,#213,#214));
#329=MANIFOLD_SOLID_BREP('',#328);
#330=ADVANCED_BREP_SHAPE_REPRESENTATION('',(#329),#48);
ENDSEC;
END-ISO-10303-21;
